<svg width="120" height="120" viewBox="0 0 120 120" fill="none" xmlns="http://www.w3.org/2000/svg">
<path d="M72.6061 55.4165C71.9544 55.7335 71.6902 56.5261 72.0072 57.1778C72.3243 57.8295 73.1169 58.0937 73.7686 57.7767C80.6555 54.3773 85.6578 47.5608 86.8203 39.9869C87.8947 32.9767 85.5169 26.2659 80.1095 21.0875L79.7396 20.7352C73.8743 15.3102 66.2476 12.5801 58.2686 13.0733C50.2896 13.5665 43.0504 17.1949 37.8896 23.3068C32.5175 29.6477 30.3334 37.7324 31.7601 46.0636C33.2925 55.029 38.7703 62.867 46.7669 67.5523C52.368 70.8284 57.705 72.3079 63.9402 72.3079C64.2396 72.3079 64.5391 72.3079 64.8385 72.2903C65.5606 72.2727 66.1419 71.6739 66.1243 70.9341C66.1067 70.2119 65.4373 69.6659 64.768 69.6483C58.6385 69.7892 53.5129 68.4329 48.0879 65.2625C40.7607 60.9648 35.7408 53.8136 34.3493 45.6057C33.0635 38.0494 35.0186 30.7398 39.8976 24.9977C44.6004 19.4494 51.1879 16.1381 58.4271 15.6977C65.6839 15.2574 72.6061 17.7233 77.943 22.6727L78.2777 22.9898C83.0334 27.5517 85.147 33.4347 84.1959 39.5818C83.1919 46.2222 78.63 52.4398 72.6061 55.4165Z" fill="#c9311c"/>
<path d="M90.7483 16.3142C89.6739 15.0284 88.4937 13.8131 87.2784 12.6682C79.4227 5.39377 69.2244 1.62445 58.5153 2.02956C47.8239 2.43468 37.9426 6.99661 30.6682 14.8347C23.3938 22.6904 19.6244 32.9063 20.0296 43.5977C20.4347 54.2892 24.9966 64.1704 32.8699 71.4625C42.029 79.3886 51.558 82.1716 54.7284 82.9113V90.5204H50.7477C50.0256 90.5204 49.4267 91.1193 49.4267 91.8415V100.701C49.4267 101.423 50.0256 102.022 50.7477 102.022H54.4994V116.043C54.4994 116.782 55.0983 117.364 55.8205 117.364H71.1267C71.8489 117.364 72.4477 116.782 72.4477 116.043V102.04H76.1994C76.9216 102.04 77.5205 101.441 77.5205 100.719V91.8591C77.5205 91.1369 76.9216 90.5381 76.1994 90.5381H71.3028C69.9994 73.4176 69.3653 47.4375 72.7824 42.8227C75.2307 39.5114 74.9841 34.7733 72.1835 31.5324C71.796 31.0921 71.3909 30.6693 70.9506 30.2642C67.7449 27.3051 63.5881 25.7903 59.2199 26.0193C54.8693 26.2483 50.871 28.1682 47.9824 31.4443C45.1642 34.6324 43.8608 38.7716 44.3011 43.0693C44.8119 47.9659 47.454 52.5631 51.5756 55.6631C55.3449 58.4989 59.8011 59.9784 64.4864 59.996C65.2085 59.996 65.8074 59.3972 65.8074 58.675C65.8074 57.9528 65.2085 57.354 64.4864 57.354C60.3119 57.354 56.5074 56.0682 53.1608 53.567C49.6205 50.9074 47.3483 46.9795 46.9256 42.8227C46.5557 39.2648 47.6301 35.8477 49.9551 33.2057C52.3682 30.458 55.6972 28.8551 59.3432 28.6614C63.0068 28.4676 66.4767 29.7358 69.154 32.2017C69.5239 32.5364 69.8585 32.8886 70.1756 33.2585C72.1483 35.5307 72.342 38.9653 70.6511 41.2375C65.8074 47.7722 68.0267 82.1716 68.6608 90.5204H57.3705V81.8721C57.3705 81.2381 56.9125 80.6744 56.2784 80.5687C56.1727 80.5511 45.0057 78.5079 34.6313 69.5074C27.304 62.7261 23.0415 53.479 22.6716 43.492C22.2841 33.5051 25.8244 23.9585 32.6057 16.6313C39.3869 9.30399 48.6341 5.04149 58.6034 4.67161C68.5903 4.30172 78.1369 7.82445 85.4642 14.6057C86.6091 15.6625 87.7011 16.8074 88.7051 18.0051C95.504 26.0898 97.7585 35.8653 95.0989 45.5352C92.2278 55.892 84.1432 64.5227 73.9801 68.0278C73.2932 68.2744 72.9233 69.0142 73.1699 69.7011C73.4165 70.3881 74.1562 70.7579 74.8432 70.5114C85.8165 66.7244 94.5528 57.4068 97.6352 46.2222C100.577 35.7068 98.1284 25.0858 90.7483 16.3142Z" fill="#c9311c"/>
</svg>
