<?xml version="1.0" encoding="utf-8"?>
<!-- Generator: Adobe Illustrator 28.0.0, SVG Export Plug-In . SVG Version: 6.00 Build 0)  -->
<svg version="1.1" id="Layer_1" xmlns="http://www.w3.org/2000/svg" xmlns:xlink="http://www.w3.org/1999/xlink" x="0px" y="0px"
	 viewBox="0 0 120 120" style="enable-background:new 0 0 120 120;" xml:space="preserve">
<style type="text/css">
	.st0{fill:#c9311c;}
</style>
<g>
	<path class="st0" d="M107.1,9c-9.8-5.6-22.4-2.3-28,7.5l-6.1,10.6L53.2,15.8c-6.5-3.8-14.9-1.5-18.6,5.1c-3.1,5.5-2,12.1,2.2,16.4
		L47,43.5L27.3,80c-0.5,0.9-1.4,1.4-2.4,1.4h-3.1v-8.8c0-0.8-0.8-1.4-1.7-1.4H15V9.7c0-1.9-1.5-3.4-3.4-3.4c-1.9,0-3.4,1.5-3.4,3.4
		v102.4c0,1.9,1.5,3.4,3.4,3.4c1.9,0,3.4-1.5,3.4-3.4v-10.7l6.2-7.1c0.4-0.3,0.6-0.7,0.6-1.1v-5H25c3.5,0,6.8-1.9,8.4-5l19.5-36.2
		l6.6,3.8L51.9,64c-5.6,9.8-2.2,22.3,7.5,28c9.8,5.6,22.4,2.3,28-7.5L114.7,37C120.3,27.2,116.9,14.7,107.1,9z M108.7,33.6L81.5,81
		c-3.8,6.6-12.1,8.8-18.6,5.1c-6.5-3.8-8.8-12.1-5-18.6c0.2-0.3,11.6-20.2,10.9-19l8,4.5c-5.5,6.8-11.2,14.9-12.2,16.6
		c-1.9,3.3-0.8,7.4,2.5,9.3c3.3,1.9,7.4,0.8,9.4-2.5C77.4,74.5,82,64.5,85,56c2-0.3,3.8-1.4,4.9-3.3c1.1-1.8,1.1-3.9,0.4-5.9
		c5.8-7,12.1-15.9,13.2-17.8c1.9-3.3,0.8-7.4-2.5-9.4c-3.3-1.9-7.4-0.8-9.3,2.5c-1,1.8-5.2,10.8-8.2,18.9l-7.9-4.5
		c0.2-0.3,10.1-17.6,9.5-16.5c3.8-6.6,12.1-8.8,18.6-5.1C110.2,18.7,112.5,27.1,108.7,33.6z"/>
</g>
</svg>
